<svg width="62" height="45" viewBox="0 0 62 45" fill="none" xmlns="http://www.w3.org/2000/svg">
<path opacity="0.15" d="M24.9055 0L27.2043 1.59574C19.8951 7.34043 16.2405 12.8723 16.2405 18.1915C16.2405 18.8298 16.2995 19.4681 16.4173 20.1064C16.6531 20.7447 16.83 21.2766 16.9478 21.7021C17.0657 22.0213 17.3605 22.5 17.832 23.1383C18.3036 23.6702 18.5983 24.0426 18.7162 24.2553C18.952 24.4681 19.3646 24.8936 19.9541 25.5319C20.6614 26.0638 21.074 26.383 21.1919 26.4894L27.7348 31.4362L13.7648 45C10.4639 43.0851 7.33977 40.6383 4.3925 37.6596C1.56312 34.6809 0.148438 31.9681 0.148438 29.5213C0.148438 19.734 8.40078 9.89362 24.9055 0ZM58.5043 0L60.8032 1.59574C53.6118 7.23404 50.0162 12.766 50.0162 18.1915C50.0162 18.9362 50.0751 19.6809 50.193 20.4255C50.4288 21.0638 50.7235 21.7021 51.0772 22.3404C51.5487 22.9787 51.9024 23.4574 52.1382 23.7766C52.374 24.0957 52.8455 24.6277 53.5529 25.3723C54.2602 26.0106 54.6728 26.383 54.7907 26.4894L61.3337 31.4362L47.3636 45C44.0627 43.0851 40.9386 40.6383 37.9913 37.6596C35.1619 34.6809 33.7473 31.9681 33.7473 29.5213C33.7473 19.734 41.9996 9.89362 58.5043 0Z" fill="#666666"/>
</svg>
