<svg width="132" height="19" viewBox="0 0 132 19" fill="none" xmlns="http://www.w3.org/2000/svg">
<path d="M12.856 15.384V18H0.256V1.2H12.52V3.816H3.376V8.184H11.488V10.752H3.376V15.384H12.856ZM19.4541 3.816V8.928H27.5661V11.568H19.4541V18H16.3341V1.2H28.5981V3.816H19.4541ZM34.7354 3.816V8.928H42.8474V11.568H34.7354V18H31.6154V1.2H43.8794V3.816H34.7354ZM59.4966 15.384V18H46.8966V1.2H59.1606V3.816H50.0166V8.184H58.1286V10.752H50.0166V15.384H59.4966ZM70.6804 18.24C68.9844 18.24 67.4484 17.872 66.0724 17.136C64.7124 16.384 63.6404 15.352 62.8564 14.04C62.0884 12.728 61.7044 11.248 61.7044 9.6C61.7044 7.952 62.0964 6.472 62.8804 5.16C63.6644 3.848 64.7364 2.824 66.0964 2.088C67.4724 1.336 69.0084 0.959999 70.7044 0.959999C72.0804 0.959999 73.3364 1.2 74.4724 1.68C75.6084 2.16 76.5684 2.856 77.3524 3.768L75.3364 5.664C74.1204 4.352 72.6244 3.696 70.8484 3.696C69.6964 3.696 68.6644 3.952 67.7524 4.464C66.8404 4.96 66.1284 5.656 65.6164 6.552C65.1044 7.448 64.8484 8.464 64.8484 9.6C64.8484 10.736 65.1044 11.752 65.6164 12.648C66.1284 13.544 66.8404 14.248 67.7524 14.76C68.6644 15.256 69.6964 15.504 70.8484 15.504C72.6244 15.504 74.1204 14.84 75.3364 13.512L77.3524 15.432C76.5684 16.344 75.6004 17.04 74.4484 17.52C73.3124 18 72.0564 18.24 70.6804 18.24ZM83.5624 3.84H77.9944V1.2H92.2504V3.84H86.6824V18H83.5624V3.84ZM94.4905 18.168C93.9465 18.168 93.4825 17.984 93.0985 17.616C92.7145 17.232 92.5225 16.752 92.5225 16.176C92.5225 15.584 92.7065 15.104 93.0745 14.736C93.4585 14.368 93.9305 14.184 94.4905 14.184C95.0505 14.184 95.5145 14.368 95.8825 14.736C96.2665 15.104 96.4585 15.584 96.4585 16.176C96.4585 16.752 96.2665 17.232 95.8825 17.616C95.4985 17.984 95.0345 18.168 94.4905 18.168ZM106.714 18.24C104.394 18.24 102.586 17.592 101.29 16.296C99.9944 14.984 99.3464 13.112 99.3464 10.68V1.2H102.466V10.56C102.466 13.856 103.89 15.504 106.738 15.504C109.57 15.504 110.986 13.856 110.986 10.56V1.2H114.058V10.68C114.058 13.112 113.41 14.984 112.114 16.296C110.834 17.592 109.034 18.24 106.714 18.24ZM131.484 15.36V18H117.156V15.912L127.044 3.84H117.324V1.2H131.172V3.288L121.284 15.36H131.484Z" fill="black"/>
</svg>
