<svg width="30" height="30" viewBox="0 0 30 30" fill="none" xmlns="http://www.w3.org/2000/svg">
<path fill-rule="evenodd" clip-rule="evenodd" d="M12.625 6.25C12.625 4.93832 13.6883 3.875 15 3.875C16.3117 3.875 17.375 4.93832 17.375 6.25V12.5C17.375 13.8117 16.3117 14.875 15 14.875C13.6883 14.875 12.625 13.8117 12.625 12.5V6.25ZM15 1.125C12.1695 1.125 9.875 3.41954 9.875 6.25V12.5C9.875 15.3305 12.1695 17.625 15 17.625C17.8305 17.625 20.125 15.3305 20.125 12.5V6.25C20.125 3.41954 17.8305 1.125 15 1.125ZM7.625 12.5C7.625 11.7406 7.00939 11.125 6.25 11.125C5.49061 11.125 4.875 11.7406 4.875 12.5C4.875 15.1853 5.94174 17.7607 7.84054 19.6595C9.41227 21.2312 11.4475 22.2328 13.625 22.5312V24.875H10C9.24061 24.875 8.625 25.4906 8.625 26.25C8.625 27.0094 9.24061 27.625 10 27.625H15H20C20.7594 27.625 21.375 27.0094 21.375 26.25C21.375 25.4906 20.7594 24.875 20 24.875H16.375V22.5312C18.5525 22.2328 20.5877 21.2312 22.1595 19.6595C24.0583 17.7607 25.125 15.1853 25.125 12.5C25.125 11.7406 24.5094 11.125 23.75 11.125C22.9906 11.125 22.375 11.7406 22.375 12.5C22.375 14.456 21.598 16.3318 20.2149 17.7149C18.8318 19.098 16.956 19.875 15 19.875C13.044 19.875 11.1682 19.098 9.78509 17.7149C8.40201 16.3318 7.625 14.456 7.625 12.5Z" fill="url(#paint0_linear_2_998)"/>
<defs>
<linearGradient id="paint0_linear_2_998" x1="5" y1="1" x2="24.5" y2="28" gradientUnits="userSpaceOnUse">
<stop stop-color="#BB00DA" stop-opacity="0.85"/>
<stop offset="1" stop-color="#3B81C1"/>
</linearGradient>
</defs>
</svg>
