<svg width="25" height="21" viewBox="0 0 25 21" fill="none" xmlns="http://www.w3.org/2000/svg">
<g clip-path="url(#clip0_34_715)">
<path d="M12.4961 12.5069C14.7387 12.5069 16.5234 10.6871 16.5234 8.44213C16.5234 6.19715 14.7055 4.3774 12.4961 4.3774C10.2535 4.3774 8.46875 6.19715 8.46875 8.44213C8.43359 10.6855 10.2539 12.5069 12.4961 12.5069ZM14.4492 13.7575H10.5508C7.48438 13.7575 5 16.0908 5 18.9674C5 19.5459 5.49609 20.011 6.10938 20.011H18.8906C19.5039 20.011 20 19.5459 20 18.9674C20 16.0908 17.5156 13.7575 14.4492 13.7575ZM20 6.25343C21.7258 6.25343 23.125 4.85344 23.125 3.12671C23.125 1.39999 21.7266 0 20 0C18.2742 0 16.875 1.39999 16.875 3.12671C16.875 4.85344 18.2734 6.25343 20 6.25343ZM7.18359 8.44213C7.18359 8.22916 7.22197 8.02666 7.24645 7.8203C6.82031 7.58619 6.35156 7.50411 5.85547 7.50411H3.44063C1.54063 7.50411 0 9.13782 0 11.1506C0 11.5532 0.308086 11.8815 0.688281 11.8815H8.48125C7.68359 10.9513 7.18359 9.75925 7.18359 8.44213ZM5 6.25343C6.72578 6.25343 8.125 4.85344 8.125 3.12671C8.125 1.39999 6.72656 0 5 0C3.27422 0 1.875 1.39999 1.875 3.12671C1.875 4.85344 3.27422 6.25343 5 6.25343ZM21.5586 7.50411H19.143C18.643 7.50411 18.1711 7.62281 17.7422 7.82616C17.7656 8.03174 17.8047 8.23107 17.8047 8.44213C17.8047 9.75964 17.3055 10.9517 16.5094 11.8815H24.3102C24.6914 11.8815 25 11.5532 25 11.1506C25 9.13782 23.4609 7.50411 21.5586 7.50411Z" fill="#2C3E50"/>
</g>
<defs>
<clipPath id="clip0_34_715">
<rect width="25" height="20.011" fill="white"/>
</clipPath>
</defs>
</svg>
