<svg width="80" height="80" viewBox="0 0 80 80" fill="none" xmlns="http://www.w3.org/2000/svg">
<circle cx="40" cy="40" r="39.5" fill="#4D8AD2" fill-opacity="0.38" stroke="white"/>
<path d="M27.1667 30.8333H29C29.9725 30.8333 30.9051 30.4469 31.5927 29.7593C32.2804 29.0717 32.6667 28.139 32.6667 27.1666C32.6667 26.6804 32.8598 26.214 33.2036 25.8702C33.5475 25.5264 34.0138 25.3333 34.5 25.3333H45.5C45.9862 25.3333 46.4525 25.5264 46.7964 25.8702C47.1402 26.214 47.3333 26.6804 47.3333 27.1666C47.3333 28.139 47.7196 29.0717 48.4073 29.7593C49.0949 30.4469 50.0275 30.8333 51 30.8333H52.8333C53.8058 30.8333 54.7384 31.2196 55.4261 31.9072C56.1137 32.5948 56.5 33.5275 56.5 34.4999V50.9999C56.5 51.9724 56.1137 52.905 55.4261 53.5926C54.7384 54.2803 53.8058 54.6666 52.8333 54.6666H27.1667C26.1942 54.6666 25.2616 54.2803 24.5739 53.5926C23.8863 52.905 23.5 51.9724 23.5 50.9999V34.4999C23.5 33.5275 23.8863 32.5948 24.5739 31.9072C25.2616 31.2196 26.1942 30.8333 27.1667 30.8333" stroke="white" stroke-width="2.75" stroke-linecap="round" stroke-linejoin="round"/>
<path d="M40 47.3333C43.0376 47.3333 45.5 44.8708 45.5 41.8333C45.5 38.7957 43.0376 36.3333 40 36.3333C36.9624 36.3333 34.5 38.7957 34.5 41.8333C34.5 44.8708 36.9624 47.3333 40 47.3333Z" stroke="white" stroke-width="2.75" stroke-linecap="round" stroke-linejoin="round"/>
</svg>
